<svg width="1400" height="1100" viewBox="0 0 1200 800" fill="none" xmlns="http://www.w3.org/2000/svg">
<ellipse cx="6.11548" cy="6.59005" rx="6.11548" ry="6.59005" transform="matrix(0.999997 0.00223653 -0.00208705 0.999998 424.176 665.59)" fill="white"/>
<ellipse cx="7.13475" cy="7.6884" rx="7.13475" ry="7.6884" transform="matrix(0.999997 0.00223653 -0.00208705 0.999998 615.808 60.2327)" fill="white"/>
<ellipse cx="7.13475" cy="7.6884" rx="7.13475" ry="7.6884" transform="matrix(0.999997 0.00223653 -0.00208705 0.999998 715.899 308.79)" fill="white"/>
<ellipse cx="6.11548" cy="6.59005" rx="6.11548" ry="6.59005" transform="matrix(0.999997 0.00223653 -0.00208705 0.999998 1150.65 234.677)" fill="white"/>
<path d="M823.632 440.424C823.623 444.974 820.192 448.654 815.971 448.645C811.749 448.635 808.334 444.939 808.343 440.39C808.353 435.841 811.783 432.16 816.005 432.17C820.227 432.179 823.642 435.875 823.632 440.424Z" fill="white"/>
<path d="M866.933 456.444C866.925 460.387 863.952 463.577 860.293 463.569C856.635 463.56 853.675 460.357 853.683 456.415C853.692 452.472 856.664 449.282 860.323 449.29C863.982 449.298 866.942 452.501 866.933 456.444Z" fill="white"/>
<ellipse cx="6.11548" cy="6.59005" rx="6.11548" ry="6.59005" transform="matrix(0.999997 0.00223653 -0.00208705 0.999998 919.908 376.917)" fill="white"/>
<ellipse cx="6.62512" cy="7.13922" rx="6.62512" ry="7.13922" transform="matrix(0.999997 0.00223653 -0.00208705 0.999998 1025.67 286.453)" fill="white"/>
<ellipse cx="6.62512" cy="7.13922" rx="6.62512" ry="7.13922" transform="matrix(0.999997 0.00223653 -0.00208705 0.999998 1054.82 220.718)" fill="white"/>
<ellipse cx="7.13475" cy="7.6884" rx="7.13475" ry="7.6884" transform="matrix(0.999997 0.00223653 -0.00208705 0.999998 827.406 136.347)" fill="white"/>
<ellipse cx="6.62512" cy="7.13922" rx="6.62512" ry="7.13922" transform="matrix(0.999997 0.00223653 -0.00208705 0.999998 971.052 133.518)" fill="white"/>
<ellipse cx="6.11548" cy="6.59005" rx="6.11548" ry="6.59005" transform="matrix(0.999997 0.00223653 -0.00208705 0.999998 971.361 18.8716)" fill="white"/>
<ellipse cx="5.09624" cy="5.49171" rx="5.09624" ry="5.49171" transform="matrix(0.999997 0.00223653 -0.00208705 0.999998 966.859 161.847)" fill="white"/>
<ellipse cx="7.13475" cy="7.6884" rx="7.13475" ry="7.6884" transform="matrix(0.999997 0.00223653 -0.00208705 0.999998 718.129 185.621)" fill="white"/>
<ellipse cx="6.62512" cy="7.13922" rx="6.62512" ry="7.13922" transform="matrix(0.999997 0.00223653 -0.00208705 0.999998 1039.83 350.947)" fill="white"/>
<ellipse cx="6.62512" cy="7.13922" rx="6.62512" ry="7.13922" transform="matrix(0.999997 0.00223653 -0.00208705 0.999998 1025.17 445.372)" fill="white"/>
</svg>
